<svg width="40" height="40" viewBox="0 0 40 40" fill="none" xmlns="http://www.w3.org/2000/svg">
<path d="M20 40C31.0457 40 40 31.0457 40 20C40 8.9543 31.0457 0 20 0C8.9543 0 0 8.9543 0 20C0 31.0457 8.9543 40 20 40Z" fill="#1E1E1E"/>
<path d="M18.3992 26.1273L18.381 20.53H16V18.1312H18.381V16.5319C18.381 14.3736 19.7075 13.3335 21.6186 13.3335C22.5339 13.3335 23.3207 13.4022 23.55 13.4328V15.6884L22.2246 15.689C21.1853 15.689 20.984 16.1866 20.984 16.9167V18.1312H23.9365L23.1429 20.53H20.984V26.1273H18.3992Z" fill="white"/>
</svg>
