<svg width="183" height="41" viewBox="0 0 183 41" fill="none" xmlns="http://www.w3.org/2000/svg">
<circle cx="20.071" cy="20.071" r="19.0674" fill="#1E1E1E" stroke="#1E1E1E" stroke-width="2.0071"/>
<path d="M8.26367 16.5903C8.26367 15.1611 8.946 13.8177 10.1001 12.9747L17.1963 7.79158C18.7425 6.66223 20.8356 6.64105 22.4043 7.73886L29.8839 12.9733C31.0859 13.8144 31.7995 15.1911 31.7941 16.6581L31.7736 22.1966C31.7731 22.3325 31.6373 22.4263 31.51 22.3785L25.6561 20.1833C25.58 20.1548 25.5296 20.082 25.5296 20.0007V16.3379C25.5296 16.2729 25.4972 16.2122 25.4433 16.176L20.127 12.6004C20.0612 12.5561 19.9751 12.5561 19.9092 12.6004L14.5929 16.176C14.539 16.2122 14.5067 16.2729 14.5067 16.3379V20.0007C14.5067 20.082 14.4563 20.1548 14.3801 20.1833L8.52727 22.3781C8.39973 22.426 8.26367 22.3317 8.26367 22.1955V16.5903Z" fill="#67E85C"/>
<path d="M8.26367 25.7346C8.26367 25.6533 8.31412 25.5805 8.39026 25.552L14.4337 23.2857C14.4806 23.2681 14.5324 23.2692 14.5785 23.2888L19.9419 25.567C19.9906 25.5877 20.0457 25.5877 20.0944 25.567L25.4578 23.2888C25.5039 23.2692 25.5557 23.2681 25.6026 23.2857L31.646 25.552C31.7221 25.5805 31.7726 25.6533 31.7726 25.7346V25.8044C31.7726 28.2771 29.768 30.2817 27.2952 30.2817H25.5296H20.0181H14.8969H12.741C10.2683 30.2817 8.26367 28.2771 8.26367 25.8044V25.7346Z" fill="#67E85C"/>
<path d="M49.2719 31.3755V13.2975H52.4927V14.8559H52.9602C53.2546 14.3537 53.7135 13.9122 54.3369 13.5312C54.9602 13.133 55.852 12.9338 57.0122 12.9338C58.0512 12.9338 59.0122 13.1936 59.8953 13.713C60.7785 14.2152 61.4884 14.9598 62.0252 15.9468C62.562 16.9339 62.8304 18.1287 62.8304 19.5313V19.9469C62.8304 21.3495 62.562 22.5443 62.0252 23.5313C61.4884 24.5183 60.7785 25.2716 59.8953 25.7911C59.0122 26.2932 58.0512 26.5443 57.0122 26.5443C56.233 26.5443 55.575 26.4491 55.0382 26.2586C54.5187 26.0854 54.0944 25.8603 53.7654 25.5833C53.4537 25.2889 53.2027 24.9945 53.0122 24.7001H52.5446V31.3755H49.2719ZM56.0252 23.6871C57.0468 23.6871 57.8867 23.3668 58.5447 22.7261C59.22 22.0681 59.5577 21.1157 59.5577 19.8689V19.6092C59.5577 18.3624 59.22 17.4187 58.5447 16.778C57.8693 16.12 57.0295 15.791 56.0252 15.791C55.0208 15.791 54.181 16.12 53.5057 16.778C52.8304 17.4187 52.4927 18.3624 52.4927 19.6092V19.8689C52.4927 21.1157 52.8304 22.0681 53.5057 22.7261C54.181 23.3668 55.0208 23.6871 56.0252 23.6871ZM65.2452 26.1807V13.2975H68.466V14.752H68.9335C69.124 14.2325 69.4357 13.8516 69.8686 13.6092C70.3188 13.3667 70.8383 13.2455 71.4271 13.2455H72.9855V16.1546H71.3751C70.5439 16.1546 69.8599 16.3797 69.3231 16.83C68.7863 17.2629 68.5179 17.9382 68.5179 18.8559V26.1807H65.2452ZM80.6266 26.5443C79.3452 26.5443 78.1936 26.2846 77.172 25.7651C76.1503 25.2456 75.3451 24.4923 74.7564 23.5053C74.1676 22.5183 73.8733 21.3321 73.8733 19.9469V19.5313C73.8733 18.146 74.1676 16.9598 74.7564 15.9728C75.3451 14.9858 76.1503 14.2325 77.172 13.713C78.1936 13.1936 79.3452 12.9338 80.6266 12.9338C81.908 12.9338 83.0595 13.1936 84.0811 13.713C85.1028 14.2325 85.908 14.9858 86.4967 15.9728C87.0855 16.9598 87.3799 18.146 87.3799 19.5313V19.9469C87.3799 21.3321 87.0855 22.5183 86.4967 23.5053C85.908 24.4923 85.1028 25.2456 84.0811 25.7651C83.0595 26.2846 81.908 26.5443 80.6266 26.5443ZM80.6266 23.6352C81.6309 23.6352 82.4621 23.3148 83.1201 22.6741C83.7781 22.0161 84.1071 21.0811 84.1071 19.8689V19.6092C84.1071 18.3971 83.7781 17.4707 83.1201 16.83C82.4794 16.1719 81.6482 15.8429 80.6266 15.8429C79.6222 15.8429 78.7911 16.1719 78.133 16.83C77.475 17.4707 77.146 18.3971 77.146 19.6092V19.8689C77.146 21.0811 77.475 22.0161 78.133 22.6741C78.7911 23.3148 79.6222 23.6352 80.6266 23.6352ZM89.8105 31.3755V13.2975H93.0313V14.8559H93.4988C93.7932 14.3537 94.252 13.9122 94.8754 13.5312C95.4988 13.133 96.3906 12.9338 97.5508 12.9338C98.5897 12.9338 99.5508 13.1936 100.434 13.713C101.317 14.2152 102.027 14.9598 102.564 15.9468C103.101 16.9339 103.369 18.1287 103.369 19.5313V19.9469C103.369 21.3495 103.101 22.5443 102.564 23.5313C102.027 24.5183 101.317 25.2716 100.434 25.7911C99.5508 26.2932 98.5897 26.5443 97.5508 26.5443C96.7715 26.5443 96.1135 26.4491 95.5767 26.2586C95.0572 26.0854 94.633 25.8603 94.304 25.5833C93.9923 25.2889 93.7412 24.9945 93.5507 24.7001H93.0832V31.3755H89.8105ZM96.5637 23.6871C97.5854 23.6871 98.4252 23.3668 99.0832 22.7261C99.7586 22.0681 100.096 21.1157 100.096 19.8689V19.6092C100.096 18.3624 99.7586 17.4187 99.0832 16.778C98.4079 16.12 97.5681 15.791 96.5637 15.791C95.5594 15.791 94.7196 16.12 94.0442 16.778C93.3689 17.4187 93.0313 18.3624 93.0313 19.6092V19.8689C93.0313 21.1157 93.3689 22.0681 94.0442 22.7261C94.7196 23.3668 95.5594 23.6871 96.5637 23.6871ZM110.288 26.1807C109.439 26.1807 108.747 25.9209 108.21 25.4014C107.69 24.8646 107.43 24.1547 107.43 23.2716V15.9988H104.21V13.2975H107.43V9.29744H110.703V13.2975H114.236V15.9988H110.703V22.7001C110.703 23.2196 110.946 23.4793 111.431 23.4793H113.924V26.1807H110.288ZM118.01 31.3755V28.5183H125.024C125.508 28.5183 125.751 28.2586 125.751 27.7391V24.4923H125.283C125.145 24.7867 124.928 25.0811 124.634 25.3755C124.34 25.6698 123.941 25.9123 123.439 26.1027C122.937 26.2932 122.296 26.3885 121.517 26.3885C120.513 26.3885 119.63 26.1633 118.868 25.7131C118.123 25.2456 117.543 24.6049 117.127 23.791C116.712 22.9772 116.504 22.0421 116.504 20.9858V13.2975H119.777V20.7261C119.777 21.6958 120.01 22.4231 120.478 22.9079C120.963 23.3928 121.647 23.6352 122.53 23.6352C123.534 23.6352 124.314 23.3062 124.868 22.6482C125.422 21.9728 125.699 21.0378 125.699 19.843V13.2975H128.972V28.4664C128.972 29.3495 128.712 30.0508 128.192 30.5703C127.673 31.1071 126.98 31.3755 126.114 31.3755H118.01ZM132.023 26.1807V13.2975H135.244V14.7001H135.711C135.937 14.2672 136.309 13.8949 136.828 13.5832C137.348 13.2542 138.032 13.0897 138.88 13.0897C139.798 13.0897 140.534 13.2715 141.088 13.6351C141.642 13.9814 142.066 14.4403 142.361 15.0118H142.828C143.123 14.4576 143.538 13.9988 144.075 13.6351C144.612 13.2715 145.374 13.0897 146.361 13.0897C147.157 13.0897 147.876 13.2628 148.517 13.6092C149.175 13.9382 149.694 14.449 150.075 15.1416C150.473 15.817 150.673 16.6741 150.673 17.7131V26.1807H147.4V17.9468C147.4 17.2369 147.218 16.7087 146.854 16.3624C146.491 15.9988 145.98 15.817 145.322 15.817C144.577 15.817 143.997 16.0594 143.582 16.5442C143.183 17.0118 142.984 17.6871 142.984 18.5702V26.1807H139.711V17.9468C139.711 17.2369 139.53 16.7087 139.166 16.3624C138.802 15.9988 138.292 15.817 137.634 15.817C136.889 15.817 136.309 16.0594 135.893 16.5442C135.495 17.0118 135.296 17.6871 135.296 18.5702V26.1807H132.023ZM157.602 26.5443C156.684 26.5443 155.862 26.3885 155.135 26.0768C154.407 25.7478 153.827 25.2802 153.394 24.6742C152.979 24.0508 152.771 23.2975 152.771 22.4144C152.771 21.5313 152.979 20.7953 153.394 20.2066C153.827 19.6005 154.416 19.1503 155.161 18.8559C155.923 18.5443 156.788 18.3884 157.758 18.3884H161.291V17.6611C161.291 17.0551 161.1 16.5616 160.719 16.1806C160.338 15.7823 159.732 15.5832 158.901 15.5832C158.087 15.5832 157.481 15.7737 157.083 16.1546C156.684 16.5183 156.425 16.9945 156.304 17.5832L153.29 16.5702C153.498 15.9122 153.827 15.3148 154.278 14.778C154.745 14.2239 155.36 13.7823 156.122 13.4533C156.901 13.107 157.845 12.9338 158.953 12.9338C160.65 12.9338 161.992 13.3581 162.979 14.2066C163.966 15.055 164.459 16.2845 164.459 17.8949V22.7001C164.459 23.2196 164.702 23.4793 165.187 23.4793H166.226V26.1807H164.044C163.403 26.1807 162.875 26.0248 162.459 25.7131C162.044 25.4014 161.836 24.9859 161.836 24.4664V24.4404H161.343C161.273 24.6482 161.117 24.9252 160.875 25.2716C160.633 25.6006 160.252 25.8949 159.732 26.1547C159.213 26.4144 158.503 26.5443 157.602 26.5443ZM158.174 23.8949C159.091 23.8949 159.836 23.6439 160.407 23.1417C160.996 22.6222 161.291 21.9382 161.291 21.0897V20.83H157.992C157.386 20.83 156.91 20.9599 156.563 21.2196C156.217 21.4793 156.044 21.843 156.044 22.3105C156.044 22.778 156.226 23.159 156.589 23.4534C156.953 23.7477 157.481 23.8949 158.174 23.8949ZM168.028 31.3755V13.2975H171.249V14.8559H171.717C172.011 14.3537 172.47 13.9122 173.093 13.5312C173.717 13.133 174.608 12.9338 175.769 12.9338C176.807 12.9338 177.769 13.1936 178.652 13.713C179.535 14.2152 180.245 14.9598 180.782 15.9468C181.318 16.9339 181.587 18.1287 181.587 19.5313V19.9469C181.587 21.3495 181.318 22.5443 180.782 23.5313C180.245 24.5183 179.535 25.2716 178.652 25.7911C177.769 26.2932 176.807 26.5443 175.769 26.5443C174.989 26.5443 174.331 26.4491 173.794 26.2586C173.275 26.0854 172.851 25.8603 172.522 25.5833C172.21 25.2889 171.959 24.9945 171.768 24.7001H171.301V31.3755H168.028ZM174.781 23.6871C175.803 23.6871 176.643 23.3668 177.301 22.7261C177.976 22.0681 178.314 21.1157 178.314 19.8689V19.6092C178.314 18.3624 177.976 17.4187 177.301 16.778C176.626 16.12 175.786 15.791 174.781 15.791C173.777 15.791 172.937 16.12 172.262 16.778C171.587 17.4187 171.249 18.3624 171.249 19.6092V19.8689C171.249 21.1157 171.587 22.0681 172.262 22.7261C172.937 23.3668 173.777 23.6871 174.781 23.6871Z" fill="#1E1E1E"/>
</svg>
