<svg width="335" height="70" viewBox="0 0 335 70" fill="none" xmlns="http://www.w3.org/2000/svg">
<g opacity="0.1">
<path d="M-52.2129 30.9006L-37.7815 24.166M-37.7815 24.166V12.6209L-23.3502 3L-8.91887 12.6209V24.166M-37.7815 24.166L-23.3502 34.7489L-8.91887 24.166M-8.91887 24.166L7.43665 30.9006" stroke="white" stroke-width="3.84836" stroke-linecap="round"/>
<path d="M7.4375 30.9006L21.8688 24.166M21.8688 24.166V12.6209L36.3002 3L50.7315 12.6209V24.166M21.8688 24.166L36.3002 34.7489L50.7315 24.166M50.7315 24.166L67.087 30.9006" stroke="white" stroke-width="3.84836" stroke-linecap="round"/>
<path d="M67.0859 30.9006L81.5173 24.166M81.5173 24.166V12.6209L95.9486 3L110.38 12.6209V24.166M81.5173 24.166L95.9486 34.7489L110.38 24.166M110.38 24.166L126.735 30.9006" stroke="white" stroke-width="3.84836" stroke-linecap="round"/>
<path d="M126.734 30.9006L141.166 24.166M141.166 24.166V12.6209L155.597 3L170.028 12.6209V24.166M141.166 24.166L155.597 34.7489L170.028 24.166M170.028 24.166L186.384 30.9006" stroke="white" stroke-width="3.84836" stroke-linecap="round"/>
<path d="M186.385 30.9006L200.816 24.166M200.816 24.166V12.6209L215.247 3L229.679 12.6209V24.166M200.816 24.166L215.247 34.7489L229.679 24.166M229.679 24.166L246.034 30.9006" stroke="white" stroke-width="3.84836" stroke-linecap="round"/>
<path d="M246.035 30.9006L260.466 24.166M260.466 24.166V12.6209L274.898 3L289.329 12.6209V24.166M260.466 24.166L274.898 34.7489L289.329 24.166M289.329 24.166L305.685 30.9006" stroke="white" stroke-width="3.84836" stroke-linecap="round"/>
<path d="M305.684 30.9006L320.115 24.166M320.115 24.166V12.6209L334.546 3L348.978 12.6209V24.166M320.115 24.166L334.546 34.7489L348.978 24.166M348.978 24.166L365.333 30.9006" stroke="white" stroke-width="3.84836" stroke-linecap="round"/>
<path d="M-23.3496 63.6115L-8.91827 56.8769M-8.91827 56.8769V45.3318L5.51307 35.7109L19.9444 45.3318V56.8769M-8.91827 56.8769L5.51307 67.4599L19.9444 56.8769M19.9444 56.8769L36.2999 63.6115" stroke="white" stroke-width="3.84836" stroke-linecap="round"/>
<path d="M36.2988 63.6115L50.7302 56.8769M50.7302 56.8769V45.3318L65.1615 35.7109L79.5929 45.3318V56.8769M50.7302 56.8769L65.1615 67.4599L79.5929 56.8769M79.5929 56.8769L95.9484 63.6115" stroke="white" stroke-width="3.84836" stroke-linecap="round"/>
<path d="M95.9492 63.6115L110.381 56.8769M110.381 56.8769V45.3318L124.812 35.7109L139.243 45.3318V56.8769M110.381 56.8769L124.812 67.4599L139.243 56.8769M139.243 56.8769L155.599 63.6115" stroke="white" stroke-width="3.84836" stroke-linecap="round"/>
<path d="M155.598 63.6115L170.029 56.8769M170.029 56.8769V45.3318L184.46 35.7109L198.892 45.3318V56.8769M170.029 56.8769L184.46 67.4599L198.892 56.8769M198.892 56.8769L215.247 63.6115" stroke="white" stroke-width="3.84836" stroke-linecap="round"/>
<path d="M215.248 63.6115L229.679 56.8769M229.679 56.8769V45.3318L244.111 35.7109L258.542 45.3318V56.8769M229.679 56.8769L244.111 67.4599L258.542 56.8769M258.542 56.8769L274.898 63.6115" stroke="white" stroke-width="3.84836" stroke-linecap="round"/>
<path d="M274.898 63.6115L289.33 56.8769M289.33 56.8769V45.3318L303.761 35.7109L318.192 45.3318V56.8769M289.33 56.8769L303.761 67.4599L318.192 56.8769M318.192 56.8769L334.548 63.6115" stroke="white" stroke-width="3.84836" stroke-linecap="round"/>
</g>
</svg>
