<svg width="40" height="40" viewBox="0 0 40 40" fill="none" xmlns="http://www.w3.org/2000/svg">
<path d="M20 40C31.0457 40 40 31.0457 40 20C40 8.9543 31.0457 0 20 0C8.9543 0 0 8.9543 0 20C0 31.0457 8.9543 40 20 40Z" fill="#1E1E1E"/>
<path d="M22.9931 17.7265C23.3761 17.7265 23.6865 17.4161 23.6865 17.0332C23.6865 16.6503 23.3761 16.3398 22.9931 16.3398C22.6102 16.3398 22.2998 16.6503 22.2998 17.0332C22.2998 17.4161 22.6102 17.7265 22.9931 17.7265Z" fill="white"/>
<path fill-rule="evenodd" clip-rule="evenodd" d="M17.1113 20.0002C17.1113 21.5934 18.407 22.8891 20.0002 22.8891C21.5934 22.8891 22.8891 21.5934 22.8891 20.0002C22.8891 18.407 21.5934 17.1113 20.0002 17.1113C18.407 17.1113 17.1113 18.407 17.1113 20.0002ZM18.5556 20.0001C18.5556 19.2035 19.2035 18.5556 20.0001 18.5556C20.7967 18.5556 21.4445 19.2035 21.4445 20.0001C21.4445 20.7967 20.7967 21.4445 20.0001 21.4445C19.2035 21.4445 18.5556 20.7967 18.5556 20.0001Z" fill="white"/>
<path fill-rule="evenodd" clip-rule="evenodd" d="M17.1106 25.7782H22.8883C24.3732 25.7782 25.7772 24.3742 25.7772 22.8893V17.1115C25.7772 15.6267 24.3732 14.2227 22.8883 14.2227H17.1106C15.6257 14.2227 14.2217 15.6267 14.2217 17.1115V22.8893C14.2217 24.3742 15.6257 25.7782 17.1106 25.7782ZM15.6661 17.1114C15.6661 16.4361 16.4352 15.6669 17.1105 15.6669H22.8883C23.5636 15.6669 24.3327 16.4361 24.3327 17.1114V22.8891C24.3327 23.5644 23.5636 24.3336 22.8883 24.3336H17.1105C16.4222 24.3336 15.6661 23.5774 15.6661 22.8891V17.1114Z" fill="white"/>
</svg>
