<svg width="32" height="32" viewBox="0 0 32 32" fill="none" xmlns="http://www.w3.org/2000/svg">
<path d="M23.3645 4.80005H17.218C17.0269 4.79991 16.8436 4.87541 16.708 5.01005L4.42 17.295C4.15101 17.5653 4 17.9312 4 18.3125C4 18.6939 4.15101 19.0597 4.42 19.33L10.27 25.18C10.5404 25.449 10.9063 25.6 11.2877 25.6C11.6692 25.6 12.0351 25.449 12.3055 25.18L24.59 12.9C24.7246 12.7645 24.8001 12.5811 24.8 12.39V6.24005C24.8009 6.05107 24.7644 5.86377 24.6927 5.68893C24.6209 5.5141 24.5153 5.35519 24.3819 5.22135C24.2484 5.08751 24.0899 4.98138 23.9153 4.90908C23.7407 4.83677 23.5535 4.79972 23.3645 4.80005Z" stroke="black" stroke-width="2" stroke-linecap="round" stroke-linejoin="round"/>
<path d="M20.7992 10.4C20.4828 10.4 20.1734 10.3061 19.9103 10.1303C19.6472 9.95449 19.4421 9.70461 19.321 9.41225C19.1999 9.11988 19.1682 8.79818 19.23 8.48781C19.2917 8.17744 19.4441 7.89234 19.6678 7.66858C19.8916 7.44482 20.1767 7.29243 20.4871 7.2307C20.7974 7.16896 21.1192 7.20064 21.4115 7.32174C21.7039 7.44284 21.9538 7.64792 22.1296 7.91104C22.3054 8.17416 22.3992 8.4835 22.3992 8.79995C22.3992 9.2243 22.2306 9.63126 21.9306 9.93132C21.6305 10.2314 21.2236 10.4 20.7992 10.4Z" fill="black"/>
<path d="M14.4004 27.2L27.7957 14.1C27.8623 14.0343 27.9148 13.9561 27.9499 13.8703C27.985 13.7844 28.0021 13.6924 28.0002 13.6V7.19995" stroke="black" stroke-width="2" stroke-linecap="round" stroke-linejoin="round"/>
</svg>
