<svg width="40" height="40" viewBox="0 0 40 40" fill="none" xmlns="http://www.w3.org/2000/svg">
<path d="M20 40C31.0457 40 40 31.0457 40 20C40 8.9543 31.0457 0 20 0C8.9543 0 0 8.9543 0 20C0 31.0457 8.9543 40 20 40Z" fill="#1E1E1E"/>
<path d="M15.7217 17.2227C16.5501 17.2227 17.2217 16.5511 17.2217 15.7227C17.2217 14.8942 16.5501 14.2227 15.7217 14.2227C14.8933 14.2227 14.2217 14.8942 14.2217 15.7227C14.2217 16.5511 14.8933 17.2227 15.7217 17.2227Z" fill="white"/>
<path d="M16.9717 18.2222H14.4717C14.3337 18.2222 14.2217 18.3342 14.2217 18.4722V25.9722C14.2217 26.1102 14.3337 26.2222 14.4717 26.2222H16.9717C17.1097 26.2222 17.2217 26.1102 17.2217 25.9722V18.4722C17.2217 18.3342 17.1097 18.2222 16.9717 18.2222Z" fill="white"/>
<path d="M24.4202 17.8777C23.3517 17.5117 22.0152 17.8332 21.2137 18.4097C21.1862 18.3022 21.0882 18.2222 20.9717 18.2222H18.4717C18.3337 18.2222 18.2217 18.3342 18.2217 18.4722V25.9722C18.2217 26.1102 18.3337 26.2222 18.4717 26.2222H20.9717C21.1097 26.2222 21.2217 26.1102 21.2217 25.9722V20.5822C21.6257 20.2342 22.1462 20.1232 22.5722 20.3042C22.9852 20.4787 23.2217 20.9047 23.2217 21.4722V25.9722C23.2217 26.1102 23.3337 26.2222 23.4717 26.2222H25.9717C26.1097 26.2222 26.2217 26.1102 26.2217 25.9722V20.9687C26.1932 18.9142 25.2267 18.1537 24.4202 17.8777Z" fill="white"/>
</svg>
