<svg width="34" height="34" viewBox="0 0 34 34" fill="none" xmlns="http://www.w3.org/2000/svg">
<circle cx="17" cy="17" r="16.15" fill="#1E1E1E" stroke="#1E1E1E" stroke-width="1.7"/>
<path d="M7 14.0519C7 12.8413 7.57793 11.7035 8.55548 10.9895L14.5659 6.59937C15.8755 5.64283 17.6484 5.62488 18.9771 6.55473L25.3123 10.9882C26.3303 11.7007 26.9347 12.8667 26.9302 14.1093L26.9128 18.8003C26.9124 18.9154 26.7973 18.9949 26.6895 18.9544L21.7313 17.0951C21.6668 17.0709 21.6241 17.0093 21.6241 16.9404V13.838C21.6241 13.783 21.5967 13.7316 21.5511 13.7009L17.0482 10.6724C16.9924 10.6349 16.9195 10.6349 16.8637 10.6724L12.3608 13.7009C12.3152 13.7316 12.2878 13.783 12.2878 13.838V16.9404C12.2878 17.0093 12.2451 17.0709 12.1806 17.0951L7.22326 18.9541C7.11524 18.9946 7 18.9148 7 18.7994V14.0519Z" fill="white"/>
<path d="M7 21.7973C7 21.7285 7.04273 21.6668 7.10722 21.6426L12.226 19.7231C12.2657 19.7082 12.3096 19.7091 12.3486 19.7257L16.8914 21.6554C16.9326 21.6729 16.9793 21.6729 17.0206 21.6554L21.5633 19.7257C21.6023 19.7091 21.6462 19.7082 21.6859 19.7231L26.8047 21.6426C26.8692 21.6668 26.9119 21.7285 26.9119 21.7973V21.8564C26.9119 23.9508 25.2141 25.6487 23.1196 25.6487H21.6241H16.956H12.6183H10.7923C8.69787 25.6487 7 23.9508 7 21.8564V21.7973Z" fill="white"/>
</svg>
