<svg width="155" height="34" viewBox="0 0 155 34" fill="none" xmlns="http://www.w3.org/2000/svg">
<circle cx="17" cy="17" r="16.15" fill="#1E1E1E" stroke="#1E1E1E" stroke-width="1.7"/>
<path d="M7 14.0519C7 12.8413 7.57793 11.7035 8.55548 10.9895L14.5659 6.59937C15.8755 5.64283 17.6484 5.62488 18.9771 6.55473L25.3123 10.9882C26.3303 11.7007 26.9347 12.8667 26.9302 14.1093L26.9128 18.8003C26.9124 18.9154 26.7973 18.9949 26.6895 18.9544L21.7313 17.0951C21.6668 17.0709 21.6241 17.0093 21.6241 16.9404V13.838C21.6241 13.783 21.5967 13.7316 21.5511 13.7009L17.0482 10.6724C16.9924 10.6349 16.9195 10.6349 16.8637 10.6724L12.3608 13.7009C12.3152 13.7316 12.2878 13.783 12.2878 13.838V16.9404C12.2878 17.0093 12.2451 17.0709 12.1806 17.0951L7.22326 18.9541C7.11524 18.9946 7 18.9148 7 18.7994V14.0519Z" fill="white"/>
<path d="M7 21.7973C7 21.7285 7.04273 21.6668 7.10722 21.6426L12.226 19.7231C12.2657 19.7082 12.3096 19.7091 12.3486 19.7257L16.8914 21.6554C16.9326 21.6729 16.9793 21.6729 17.0206 21.6554L21.5633 19.7257C21.6023 19.7091 21.6462 19.7082 21.6859 19.7231L26.8047 21.6426C26.8692 21.6668 26.9119 21.7285 26.9119 21.7973V21.8564C26.9119 23.9508 25.2141 25.6487 23.1196 25.6487H21.6241H16.956H12.6183H10.7923C8.69787 25.6487 7 23.9508 7 21.8564V21.7973Z" fill="white"/>
<path d="M41.7324 27.4V12.088H44.4604V13.408H44.8564C45.1057 12.9827 45.4944 12.6087 46.0224 12.286C46.5504 11.9487 47.3057 11.78 48.2884 11.78C49.1684 11.78 49.9824 12 50.7304 12.44C51.4784 12.8653 52.0797 13.496 52.5344 14.332C52.989 15.168 53.2164 16.18 53.2164 17.368V17.72C53.2164 18.908 52.989 19.92 52.5344 20.756C52.0797 21.592 51.4784 22.23 50.7304 22.67C49.9824 23.0953 49.1684 23.308 48.2884 23.308C47.6284 23.308 47.071 23.2273 46.6164 23.066C46.1764 22.9193 45.817 22.7287 45.5384 22.494C45.2744 22.2447 45.0617 21.9953 44.9004 21.746H44.5044V27.4H41.7324ZM47.4524 20.888C48.3177 20.888 49.0291 20.6167 49.5864 20.074C50.1584 19.5167 50.4444 18.71 50.4444 17.654V17.434C50.4444 16.378 50.1584 15.5787 49.5864 15.036C49.0144 14.4787 48.303 14.2 47.4524 14.2C46.6017 14.2 45.8904 14.4787 45.3184 15.036C44.7464 15.5787 44.4604 16.378 44.4604 17.434V17.654C44.4604 18.71 44.7464 19.5167 45.3184 20.074C45.8904 20.6167 46.6017 20.888 47.4524 20.888ZM55.2617 23V12.088H57.9897V13.32H58.3857C58.547 12.88 58.811 12.5573 59.1777 12.352C59.559 12.1467 59.999 12.044 60.4977 12.044H61.8177V14.508H60.4537C59.7497 14.508 59.1703 14.6987 58.7157 15.08C58.261 15.4467 58.0337 16.0187 58.0337 16.796V23H55.2617ZM68.2896 23.308C67.2043 23.308 66.229 23.088 65.3636 22.648C64.4983 22.208 63.8163 21.57 63.3176 20.734C62.819 19.898 62.5696 18.8933 62.5696 17.72V17.368C62.5696 16.1947 62.819 15.19 63.3176 14.354C63.8163 13.518 64.4983 12.88 65.3636 12.44C66.229 12 67.2043 11.78 68.2896 11.78C69.375 11.78 70.3503 12 71.2156 12.44C72.081 12.88 72.763 13.518 73.2616 14.354C73.7603 15.19 74.0096 16.1947 74.0096 17.368V17.72C74.0096 18.8933 73.7603 19.898 73.2616 20.734C72.763 21.57 72.081 22.208 71.2156 22.648C70.3503 23.088 69.375 23.308 68.2896 23.308ZM68.2896 20.844C69.1403 20.844 69.8443 20.5727 70.4016 20.03C70.959 19.4727 71.2376 18.6807 71.2376 17.654V17.434C71.2376 16.4073 70.959 15.6227 70.4016 15.08C69.859 14.5227 69.155 14.244 68.2896 14.244C67.439 14.244 66.735 14.5227 66.1776 15.08C65.6203 15.6227 65.3416 16.4073 65.3416 17.434V17.654C65.3416 18.6807 65.6203 19.4727 66.1776 20.03C66.735 20.5727 67.439 20.844 68.2896 20.844ZM76.0683 27.4V12.088H78.7963V13.408H79.1923C79.4417 12.9827 79.8303 12.6087 80.3583 12.286C80.8863 11.9487 81.6417 11.78 82.6243 11.78C83.5043 11.78 84.3183 12 85.0663 12.44C85.8143 12.8653 86.4157 13.496 86.8703 14.332C87.325 15.168 87.5523 16.18 87.5523 17.368V17.72C87.5523 18.908 87.325 19.92 86.8703 20.756C86.4157 21.592 85.8143 22.23 85.0663 22.67C84.3183 23.0953 83.5043 23.308 82.6243 23.308C81.9643 23.308 81.407 23.2273 80.9523 23.066C80.5123 22.9193 80.153 22.7287 79.8743 22.494C79.6103 22.2447 79.3977 21.9953 79.2363 21.746H78.8403V27.4H76.0683ZM81.7883 20.888C82.6537 20.888 83.365 20.6167 83.9223 20.074C84.4943 19.5167 84.7803 18.71 84.7803 17.654V17.434C84.7803 16.378 84.4943 15.5787 83.9223 15.036C83.3503 14.4787 82.639 14.2 81.7883 14.2C80.9377 14.2 80.2263 14.4787 79.6543 15.036C79.0823 15.5787 78.7963 16.378 78.7963 17.434V17.654C78.7963 18.71 79.0823 19.5167 79.6543 20.074C80.2263 20.6167 80.9377 20.888 81.7883 20.888ZM93.4124 23C92.6937 23 92.107 22.78 91.6524 22.34C91.2124 21.8853 90.9924 21.284 90.9924 20.536V14.376H88.2644V12.088H90.9924V8.7H93.7644V12.088H96.7564V14.376H93.7644V20.052C93.7644 20.492 93.9697 20.712 94.3804 20.712H96.4924V23H93.4124ZM99.9536 27.4V24.98H105.894C106.304 24.98 106.51 24.76 106.51 24.32V21.57H106.114C105.996 21.8193 105.813 22.0687 105.564 22.318C105.314 22.5673 104.977 22.7727 104.552 22.934C104.126 23.0953 103.584 23.176 102.924 23.176C102.073 23.176 101.325 22.9853 100.68 22.604C100.049 22.208 99.5576 21.6653 99.2056 20.976C98.8536 20.2867 98.6776 19.4947 98.6776 18.6V12.088H101.45V18.38C101.45 19.2013 101.648 19.8173 102.044 20.228C102.454 20.6387 103.034 20.844 103.782 20.844C104.632 20.844 105.292 20.5653 105.762 20.008C106.231 19.436 106.466 18.644 106.466 17.632V12.088H109.238V24.936C109.238 25.684 109.018 26.278 108.578 26.718C108.138 27.1727 107.551 27.4 106.818 27.4H99.9536ZM111.822 23V12.088H114.55V13.276H114.946C115.137 12.9093 115.452 12.594 115.892 12.33C116.332 12.0513 116.912 11.912 117.63 11.912C118.408 11.912 119.031 12.066 119.5 12.374C119.97 12.6673 120.329 13.056 120.578 13.54H120.974C121.224 13.0707 121.576 12.682 122.03 12.374C122.485 12.066 123.13 11.912 123.966 11.912C124.641 11.912 125.25 12.0587 125.792 12.352C126.35 12.6307 126.79 13.0633 127.112 13.65C127.45 14.222 127.618 14.948 127.618 15.828V23H124.846V16.026C124.846 15.4247 124.692 14.9773 124.384 14.684C124.076 14.376 123.644 14.222 123.086 14.222C122.456 14.222 121.964 14.4273 121.612 14.838C121.275 15.234 121.106 15.806 121.106 16.554V23H118.334V16.026C118.334 15.4247 118.18 14.9773 117.872 14.684C117.564 14.376 117.132 14.222 116.574 14.222C115.944 14.222 115.452 14.4273 115.1 14.838C114.763 15.234 114.594 15.806 114.594 16.554V23H111.822ZM133.488 23.308C132.71 23.308 132.014 23.176 131.398 22.912C130.782 22.6333 130.29 22.2373 129.924 21.724C129.572 21.196 129.396 20.558 129.396 19.81C129.396 19.062 129.572 18.4387 129.924 17.94C130.29 17.4267 130.789 17.0453 131.42 16.796C132.065 16.532 132.798 16.4 133.62 16.4H136.612V15.784C136.612 15.2707 136.45 14.8527 136.128 14.53C135.805 14.1927 135.292 14.024 134.588 14.024C133.898 14.024 133.385 14.1853 133.048 14.508C132.71 14.816 132.49 15.2193 132.388 15.718L129.836 14.86C130.012 14.3027 130.29 13.7967 130.672 13.342C131.068 12.8727 131.588 12.4987 132.234 12.22C132.894 11.9267 133.693 11.78 134.632 11.78C136.069 11.78 137.206 12.1393 138.042 12.858C138.878 13.5767 139.296 14.618 139.296 15.982V20.052C139.296 20.492 139.501 20.712 139.912 20.712H140.792V23H138.944C138.401 23 137.954 22.868 137.602 22.604C137.25 22.34 137.074 21.988 137.074 21.548V21.526H136.656C136.597 21.702 136.465 21.9367 136.26 22.23C136.054 22.5087 135.732 22.758 135.292 22.978C134.852 23.198 134.25 23.308 133.488 23.308ZM133.972 21.064C134.749 21.064 135.38 20.8513 135.864 20.426C136.362 19.986 136.612 19.4067 136.612 18.688V18.468H133.818C133.304 18.468 132.901 18.578 132.608 18.798C132.314 19.018 132.168 19.326 132.168 19.722C132.168 20.118 132.322 20.4407 132.63 20.69C132.938 20.9393 133.385 21.064 133.972 21.064ZM142.318 27.4V12.088H145.046V13.408H145.442C145.692 12.9827 146.08 12.6087 146.608 12.286C147.136 11.9487 147.892 11.78 148.874 11.78C149.754 11.78 150.568 12 151.316 12.44C152.064 12.8653 152.666 13.496 153.12 14.332C153.575 15.168 153.802 16.18 153.802 17.368V17.72C153.802 18.908 153.575 19.92 153.12 20.756C152.666 21.592 152.064 22.23 151.316 22.67C150.568 23.0953 149.754 23.308 148.874 23.308C148.214 23.308 147.657 23.2273 147.202 23.066C146.762 22.9193 146.403 22.7287 146.124 22.494C145.86 22.2447 145.648 21.9953 145.486 21.746H145.09V27.4H142.318ZM148.038 20.888C148.904 20.888 149.615 20.6167 150.172 20.074C150.744 19.5167 151.03 18.71 151.03 17.654V17.434C151.03 16.378 150.744 15.5787 150.172 15.036C149.6 14.4787 148.889 14.2 148.038 14.2C147.188 14.2 146.476 14.4787 145.904 15.036C145.332 15.5787 145.046 16.378 145.046 17.434V17.654C145.046 18.71 145.332 19.5167 145.904 20.074C146.476 20.6167 147.188 20.888 148.038 20.888Z" fill="#1E1E1E"/>
</svg>
