<svg width="113" height="20" viewBox="0 0 113 20" fill="none" xmlns="http://www.w3.org/2000/svg">
<path d="M0.732383 19.4V4.088H3.46038V5.408H3.85638C4.10572 4.98267 4.49438 4.60867 5.02238 4.286C5.55038 3.94867 6.30572 3.78 7.28838 3.78C8.16838 3.78 8.98238 4 9.73038 4.44C10.4784 4.86533 11.0797 5.496 11.5344 6.332C11.989 7.168 12.2164 8.18 12.2164 9.368V9.72C12.2164 10.908 11.989 11.92 11.5344 12.756C11.0797 13.592 10.4784 14.23 9.73038 14.67C8.98238 15.0953 8.16838 15.308 7.28838 15.308C6.62838 15.308 6.07105 15.2273 5.61638 15.066C5.17638 14.9193 4.81705 14.7287 4.53838 14.494C4.27438 14.2447 4.06172 13.9953 3.90038 13.746H3.50438V19.4H0.732383ZM6.45238 12.888C7.31772 12.888 8.02905 12.6167 8.58638 12.074C9.15838 11.5167 9.44438 10.71 9.44438 9.654V9.434C9.44438 8.378 9.15838 7.57867 8.58638 7.036C8.01438 6.47867 7.30305 6.2 6.45238 6.2C5.60172 6.2 4.89038 6.47867 4.31838 7.036C3.74638 7.57867 3.46038 8.378 3.46038 9.434V9.654C3.46038 10.71 3.74638 11.5167 4.31838 12.074C4.89038 12.6167 5.60172 12.888 6.45238 12.888ZM14.2617 15V4.088H16.9897V5.32H17.3857C17.547 4.88 17.811 4.55733 18.1777 4.352C18.559 4.14667 18.999 4.044 19.4977 4.044H20.8177V6.508H19.4537C18.7497 6.508 18.1703 6.69867 17.7157 7.08C17.261 7.44667 17.0337 8.01867 17.0337 8.796V15H14.2617ZM27.2896 15.308C26.2043 15.308 25.229 15.088 24.3636 14.648C23.4983 14.208 22.8163 13.57 22.3176 12.734C21.819 11.898 21.5696 10.8933 21.5696 9.72V9.368C21.5696 8.19467 21.819 7.19 22.3176 6.354C22.8163 5.518 23.4983 4.88 24.3636 4.44C25.229 4 26.2043 3.78 27.2896 3.78C28.375 3.78 29.3503 4 30.2156 4.44C31.081 4.88 31.763 5.518 32.2616 6.354C32.7603 7.19 33.0096 8.19467 33.0096 9.368V9.72C33.0096 10.8933 32.7603 11.898 32.2616 12.734C31.763 13.57 31.081 14.208 30.2156 14.648C29.3503 15.088 28.375 15.308 27.2896 15.308ZM27.2896 12.844C28.1403 12.844 28.8443 12.5727 29.4016 12.03C29.959 11.4727 30.2376 10.6807 30.2376 9.654V9.434C30.2376 8.40733 29.959 7.62267 29.4016 7.08C28.859 6.52267 28.155 6.244 27.2896 6.244C26.439 6.244 25.735 6.52267 25.1776 7.08C24.6203 7.62267 24.3416 8.40733 24.3416 9.434V9.654C24.3416 10.6807 24.6203 11.4727 25.1776 12.03C25.735 12.5727 26.439 12.844 27.2896 12.844ZM35.0683 19.4V4.088H37.7963V5.408H38.1923C38.4417 4.98267 38.8303 4.60867 39.3583 4.286C39.8863 3.94867 40.6417 3.78 41.6243 3.78C42.5043 3.78 43.3183 4 44.0663 4.44C44.8143 4.86533 45.4157 5.496 45.8703 6.332C46.325 7.168 46.5523 8.18 46.5523 9.368V9.72C46.5523 10.908 46.325 11.92 45.8703 12.756C45.4157 13.592 44.8143 14.23 44.0663 14.67C43.3183 15.0953 42.5043 15.308 41.6243 15.308C40.9643 15.308 40.407 15.2273 39.9523 15.066C39.5123 14.9193 39.153 14.7287 38.8743 14.494C38.6103 14.2447 38.3977 13.9953 38.2363 13.746H37.8403V19.4H35.0683ZM40.7883 12.888C41.6537 12.888 42.365 12.6167 42.9223 12.074C43.4943 11.5167 43.7803 10.71 43.7803 9.654V9.434C43.7803 8.378 43.4943 7.57867 42.9223 7.036C42.3503 6.47867 41.639 6.2 40.7883 6.2C39.9377 6.2 39.2263 6.47867 38.6543 7.036C38.0823 7.57867 37.7963 8.378 37.7963 9.434V9.654C37.7963 10.71 38.0823 11.5167 38.6543 12.074C39.2263 12.6167 39.9377 12.888 40.7883 12.888ZM52.4124 15C51.6937 15 51.107 14.78 50.6524 14.34C50.2124 13.8853 49.9924 13.284 49.9924 12.536V6.376H47.2644V4.088H49.9924V0.699999H52.7644V4.088H55.7564V6.376H52.7644V12.052C52.7644 12.492 52.9697 12.712 53.3804 12.712H55.4924V15H52.4124ZM58.9536 19.4V16.98H64.8936C65.3043 16.98 65.5096 16.76 65.5096 16.32V13.57H65.1136C64.9963 13.8193 64.8129 14.0687 64.5636 14.318C64.3143 14.5673 63.9769 14.7727 63.5516 14.934C63.1263 15.0953 62.5836 15.176 61.9236 15.176C61.0729 15.176 60.3249 14.9853 59.6796 14.604C59.0489 14.208 58.5576 13.6653 58.2056 12.976C57.8536 12.2867 57.6776 11.4947 57.6776 10.6V4.088H60.4496V10.38C60.4496 11.2013 60.6476 11.8173 61.0436 12.228C61.4543 12.6387 62.0336 12.844 62.7816 12.844C63.6323 12.844 64.2923 12.5653 64.7616 12.008C65.2309 11.436 65.4656 10.644 65.4656 9.632V4.088H68.2376V16.936C68.2376 17.684 68.0176 18.278 67.5776 18.718C67.1376 19.1727 66.5509 19.4 65.8176 19.4H58.9536ZM70.8222 15V4.088H73.5502V5.276H73.9462C74.1369 4.90933 74.4522 4.594 74.8922 4.33C75.3322 4.05133 75.9116 3.912 76.6302 3.912C77.4076 3.912 78.0309 4.066 78.5002 4.374C78.9696 4.66733 79.3289 5.056 79.5782 5.54H79.9742C80.2236 5.07067 80.5756 4.682 81.0302 4.374C81.4849 4.066 82.1302 3.912 82.9662 3.912C83.6409 3.912 84.2496 4.05867 84.7922 4.352C85.3496 4.63067 85.7896 5.06333 86.1122 5.65C86.4496 6.222 86.6182 6.948 86.6182 7.828V15H83.8462V8.026C83.8462 7.42467 83.6922 6.97733 83.3842 6.684C83.0762 6.376 82.6436 6.222 82.0862 6.222C81.4556 6.222 80.9642 6.42733 80.6122 6.838C80.2749 7.234 80.1062 7.806 80.1062 8.554V15H77.3342V8.026C77.3342 7.42467 77.1802 6.97733 76.8722 6.684C76.5642 6.376 76.1316 6.222 75.5742 6.222C74.9436 6.222 74.4522 6.42733 74.1002 6.838C73.7629 7.234 73.5942 7.806 73.5942 8.554V15H70.8222ZM92.4876 15.308C91.7102 15.308 91.0136 15.176 90.3976 14.912C89.7816 14.6333 89.2902 14.2373 88.9236 13.724C88.5716 13.196 88.3956 12.558 88.3956 11.81C88.3956 11.062 88.5716 10.4387 88.9236 9.94C89.2902 9.42667 89.7889 9.04533 90.4196 8.796C91.0649 8.532 91.7982 8.4 92.6196 8.4H95.6116V7.784C95.6116 7.27067 95.4502 6.85267 95.1276 6.53C94.8049 6.19267 94.2916 6.024 93.5876 6.024C92.8982 6.024 92.3849 6.18533 92.0476 6.508C91.7102 6.816 91.4902 7.21933 91.3876 7.718L88.8356 6.86C89.0116 6.30267 89.2902 5.79667 89.6716 5.342C90.0676 4.87267 90.5882 4.49867 91.2336 4.22C91.8936 3.92667 92.6929 3.78 93.6316 3.78C95.0689 3.78 96.2056 4.13933 97.0416 4.858C97.8776 5.57667 98.2956 6.618 98.2956 7.982V12.052C98.2956 12.492 98.5009 12.712 98.9116 12.712H99.7916V15H97.9436C97.4009 15 96.9536 14.868 96.6016 14.604C96.2496 14.34 96.0736 13.988 96.0736 13.548V13.526H95.6556C95.5969 13.702 95.4649 13.9367 95.2596 14.23C95.0542 14.5087 94.7316 14.758 94.2916 14.978C93.8516 15.198 93.2502 15.308 92.4876 15.308ZM92.9716 13.064C93.7489 13.064 94.3796 12.8513 94.8636 12.426C95.3622 11.986 95.6116 11.4067 95.6116 10.688V10.468H92.8176C92.3042 10.468 91.9009 10.578 91.6076 10.798C91.3142 11.018 91.1676 11.326 91.1676 11.722C91.1676 12.118 91.3216 12.4407 91.6296 12.69C91.9376 12.9393 92.3849 13.064 92.9716 13.064ZM101.318 19.4V4.088H104.046V5.408H104.442C104.692 4.98267 105.08 4.60867 105.608 4.286C106.136 3.94867 106.892 3.78 107.874 3.78C108.754 3.78 109.568 4 110.316 4.44C111.064 4.86533 111.666 5.496 112.12 6.332C112.575 7.168 112.802 8.18 112.802 9.368V9.72C112.802 10.908 112.575 11.92 112.12 12.756C111.666 13.592 111.064 14.23 110.316 14.67C109.568 15.0953 108.754 15.308 107.874 15.308C107.214 15.308 106.657 15.2273 106.202 15.066C105.762 14.9193 105.403 14.7287 105.124 14.494C104.86 14.2447 104.648 13.9953 104.486 13.746H104.09V19.4H101.318ZM107.038 12.888C107.904 12.888 108.615 12.6167 109.172 12.074C109.744 11.5167 110.03 10.71 110.03 9.654V9.434C110.03 8.378 109.744 7.57867 109.172 7.036C108.6 6.47867 107.889 6.2 107.038 6.2C106.188 6.2 105.476 6.47867 104.904 7.036C104.332 7.57867 104.046 8.378 104.046 9.434V9.654C104.046 10.71 104.332 11.5167 104.904 12.074C105.476 12.6167 106.188 12.888 107.038 12.888Z" fill="#1E1E1E"/>
</svg>
