<svg width="73" height="7" viewBox="0 0 73 7" fill="none" xmlns="http://www.w3.org/2000/svg">
<path d="M1 1L5.88221 5.37339C6.82187 6.21511 8.29659 5.98729 8.93845 4.90126L9.87337 3.31935C10.5559 2.16444 12.1596 1.99575 13.0675 2.98334L14.9671 5.04959C15.866 6.02733 17.4506 5.87349 18.1446 4.74112L19.1166 3.15526C19.791 2.05494 21.3155 1.8719 22.2312 2.78131L24.5919 5.12585C25.5364 6.06392 27.1167 5.83468 27.7557 4.66689L28.2416 3.77902C28.9473 2.4894 30.7565 2.37631 31.6173 3.56802L32.206 4.38297C33.0755 5.58668 34.9072 5.45654 35.5978 4.14199L35.8746 3.61503C36.5327 2.36246 38.2477 2.17052 39.1663 3.24662L40.5829 4.906C41.4652 5.9395 43.0991 5.81116 43.8092 4.65258L44.6091 3.34742C45.3192 2.18884 46.9532 2.0605 47.8355 3.094L49.3823 4.906C50.2646 5.9395 51.8985 5.81116 52.6086 4.65258L53.3687 3.41246C54.0902 2.23529 55.7592 2.1259 56.6281 3.19883L57.8952 4.76326C58.7727 5.84677 60.4617 5.72242 61.1711 4.52209L61.828 3.41074C62.5262 2.22925 64.1798 2.08599 65.0709 3.12978L66.5752 4.89197C67.4609 5.92953 69.1026 5.79533 69.8081 4.62771L72 1" stroke="#68E85D" stroke-width="2" stroke-linecap="round"/>
</svg>
