<svg width="40" height="40" viewBox="0 0 40 40" fill="none" xmlns="http://www.w3.org/2000/svg">
<path d="M20 40C31.0457 40 40 31.0457 40 20C40 8.9543 31.0457 0 20 0C8.9543 0 0 8.9543 0 20C0 31.0457 8.9543 40 20 40Z" fill="#1E1E1E"/>
<path fill-rule="evenodd" clip-rule="evenodd" d="M26.0138 15.4163C26.6228 15.5775 27.1025 16.0499 27.2659 16.6486C27.5693 17.7414 27.5551 20.0198 27.5551 20.0198C27.5551 20.0198 27.553 22.2856 27.2588 23.3776C27.0932 23.9757 26.6114 24.4474 26.0032 24.6079C24.8903 24.894 20.4384 24.8891 20.4384 24.8891C20.4384 24.8891 15.9985 24.8842 14.8743 24.5842C14.2646 24.423 13.785 23.9505 13.6215 23.3525C13.3302 22.2709 13.333 19.9932 13.333 19.9932C13.333 19.9932 13.3359 17.7267 13.6293 16.634C13.7942 16.0359 14.2874 15.553 14.8843 15.3933C15.9978 15.1064 20.449 15.1113 20.449 15.1113C20.449 15.1113 24.901 15.1162 26.0138 15.4163ZM19.0288 17.9051L19.0252 22.092L22.7289 20.0021L19.0288 17.9051Z" fill="white"/>
</svg>
